<svg xmlns="http://www.w3.org/2000/svg" viewBox="0 0 171.93 70.92"><defs><style>.cls-1{fill:#fff;}.cls-2{fill:#bf2441;}.cls-3{fill:#bf2240;}</style></defs><title>Asset 42</title><g id="Layer_2" data-name="Layer 2"><g id="Layer_1-2" data-name="Layer 1"><path class="cls-1" d="M16,38.88H31.39V51H0V0H16Z"/><path class="cls-1" d="M44.71,49A18.59,18.59,0,0,1,37,41.72a21.46,21.46,0,0,1-2.77-11,21.48,21.48,0,0,1,2.77-11,18.65,18.65,0,0,1,7.67-7.24,23.75,23.75,0,0,1,11-2.52,23.68,23.68,0,0,1,11,2.52,18.59,18.59,0,0,1,7.67,7.24,21.38,21.38,0,0,1,2.77,11.05,21.36,21.36,0,0,1-2.77,11A18.53,18.53,0,0,1,66.74,49a23.68,23.68,0,0,1-11,2.52A23.75,23.75,0,0,1,44.71,49ZM59.47,35.89A7.8,7.8,0,0,0,61,30.67a7.83,7.83,0,0,0-1.51-5.22,4.86,4.86,0,0,0-7.49,0,7.89,7.89,0,0,0-1.51,5.22A7.91,7.91,0,0,0,52,35.89a4.69,4.69,0,0,0,3.78,1.77A4.74,4.74,0,0,0,59.47,35.89Z"/><path class="cls-2" d="M103.68,11.48a11,11,0,0,1,4.39,4.43V10.37H124V50.26a25,25,0,0,1-2.09,10.36,16.43,16.43,0,0,1-6.73,7.49c-3.09,1.87-7.07,2.81-11.91,2.81q-9.8,0-15.52-4.57a17.43,17.43,0,0,1-6.52-12.42h15.7q.65,3.16,5.18,3.17a6.3,6.3,0,0,0,4.4-1.44q1.58-1.44,1.58-5.4V45.43a11,11,0,0,1-4.39,4.43,13.73,13.73,0,0,1-6.84,1.62A15.4,15.4,0,0,1,88.27,49a16.81,16.81,0,0,1-6-7.2,26.1,26.1,0,0,1-2.2-11.13,26,26,0,0,1,2.2-11.12,16.69,16.69,0,0,1,6-7.2,15.33,15.33,0,0,1,8.57-2.49A13.73,13.73,0,0,1,103.68,11.48Zm2.73,14.15a5.91,5.91,0,0,0-8.49,0,7.14,7.14,0,0,0-1.66,5,7.14,7.14,0,0,0,1.66,5,5.91,5.91,0,0,0,8.49,0,7.14,7.14,0,0,0,1.66-5A7.14,7.14,0,0,0,106.41,25.63Z"/><path class="cls-3" d="M139.46,49a18.59,18.59,0,0,1-7.67-7.24,21.46,21.46,0,0,1-2.77-11,21.48,21.48,0,0,1,2.77-11,18.65,18.65,0,0,1,7.67-7.24,25.33,25.33,0,0,1,22,0,18.59,18.59,0,0,1,7.67,7.24,21.38,21.38,0,0,1,2.77,11.05,21.36,21.36,0,0,1-2.77,11A18.53,18.53,0,0,1,161.49,49a25.33,25.33,0,0,1-22,0Zm14.76-13.07a7.8,7.8,0,0,0,1.51-5.22,7.83,7.83,0,0,0-1.51-5.22,4.86,4.86,0,0,0-7.49,0,7.89,7.89,0,0,0-1.51,5.22,7.91,7.91,0,0,0,1.48,5.22,4.69,4.69,0,0,0,3.78,1.77A4.74,4.74,0,0,0,154.22,35.89Z"/></g></g></svg>